<svg id="Icon_star" xmlns="http://www.w3.org/2000/svg" width="10.83" height="10.228" viewBox="0 0 10.83 10.228">
  <g id="Icon_star-2" data-name="Icon_star">
    <path id="Path" d="M4.8,8.933a1.2,1.2,0,0,1,1.233,0l2.01,1.2a.63.63,0,0,0,.943-.675L8.456,7.222a1.2,1.2,0,0,1,.389-1.19L10.61,4.52a.622.622,0,0,0-.361-1.094l-2.336-.2A1.2,1.2,0,0,1,6.908,2.5L6,.38a.636.636,0,0,0-1.164,0L3.922,2.5a1.2,1.2,0,0,1-1,.724l-2.337.2A.622.622,0,0,0,.22,4.513L1.985,6.025a1.2,1.2,0,0,1,.389,1.19L1.846,9.454a.63.63,0,0,0,.943.675Z" transform="translate(0 0)" fill="#cfff2d"/>
  </g>
</svg>
