<svg xmlns="http://www.w3.org/2000/svg" width="20" height="19.988" viewBox="0 0 20 19.988">
  <g id="Layer" transform="translate(-2 -1.964)">
    <g id="Vrstva_209" data-name="Vrstva 209">
      <path id="Path_384" data-name="Path 384" d="M3,5.72h8.09a3,3,0,0,0,5.82,0H21a1,1,0,0,0,0-2H17a1.28,1.28,0,0,0-.27,0,3,3,0,0,0-5.46,0,1.28,1.28,0,0,0-.27,0H3a1,1,0,0,0,0,2ZM14,4a1,1,0,1,1-1,1A1,1,0,0,1,14,4Z" fill="#242330" fill-rule="evenodd"/>
      <path id="Path_385" data-name="Path 385" d="M3,12.72H5.09a3,3,0,0,0,5.81,0H21a1,1,0,0,0,0-2H10.7a3,3,0,0,0-5.43,0,1.28,1.28,0,0,0-.27,0H3a1,1,0,0,0,0,2ZM8,11a1,1,0,1,1-1,1A1,1,0,0,1,8,11Z" fill="#242330" fill-rule="evenodd"/>
      <path id="Path_386" data-name="Path 386" d="M3,19.72h9.1a3,3,0,0,0,5.8,0H21a1,1,0,0,0,0-2H17.7a3,3,0,0,0-5.4,0H3a1,1,0,0,0,0,2ZM15,18a1,1,0,1,1-1,1A1,1,0,0,1,15,18Z" fill="#242330" fill-rule="evenodd"/>
    </g>
  </g>
</svg>
