<svg xmlns="http://www.w3.org/2000/svg" xmlns:xlink="http://www.w3.org/1999/xlink" width="30" height="30" viewBox="0 0 30 30">
  <defs>
    <clipPath id="clip-path">
      <path id="_Icon_小olor" data-name=" Icon 小olor" d="M5.829,14a1,1,0,0,1-.78-.373l-4.828-6A1,1,0,0,1,.232,6.359l5-6a1,1,0,1,1,1.536,1.28L2.293,7.01l4.315,5.362A1,1,0,0,1,5.829,14" transform="translate(8 5.001)" fill="#242330"/>
    </clipPath>
  </defs>
  <g id="Group_2098" data-name="Group 2098" transform="translate(-28 -77)">
    <circle id="Ellipse_344" data-name="Ellipse 344" cx="15" cy="15" r="15" transform="translate(28 77)" fill="#fff" opacity="0.5"/>
    <g id="arrow-ios-left" transform="translate(37 81)">
      <g id="Group_2" data-name="Group 2" transform="translate(-5.987 -0.975)">
        <path id="_Icon_小olor-2" data-name=" Icon 小olor" d="M5.829,14a1,1,0,0,1-.78-.373l-4.828-6A1,1,0,0,1,.232,6.359l5-6a1,1,0,1,1,1.536,1.28L2.293,7.01l4.315,5.362A1,1,0,0,1,5.829,14" transform="translate(8 5.001)" fill="#242330"/>
      </g>
    </g>
  </g>
</svg>
