<svg id="Component_5_1" data-name="Component 5 – 1" xmlns="http://www.w3.org/2000/svg" width="24" height="24" viewBox="0 0 24 24">
  <rect id="Rectangle_27" data-name="Rectangle 27" width="24" height="24" fill="none"/>
  <g id="Layer" transform="translate(0 0.003)">
    <g id="Vrstva_90" data-name="Vrstva 90">
      <path id="Path_69" data-name="Path 69" d="M17,2.08H7a3,3,0,0,0-3,3V20.72a1.2,1.2,0,0,0,1.84,1L12,17.86l6.16,3.87a1.2,1.2,0,0,0,1.84-1V5.08A3,3,0,0,0,17,2.08Zm1,17.19L12.64,15.9a1.19,1.19,0,0,0-1.28,0L6,19.27V5.08a1,1,0,0,1,1-1H17a1,1,0,0,1,1,1Z" fill="#03a9f4" fill-rule="evenodd"/>
    </g>
  </g>
</svg>
