<svg xmlns="http://www.w3.org/2000/svg" xmlns:xlink="http://www.w3.org/1999/xlink" width="7" height="13.999" viewBox="0 0 7 13.999">
  <defs>
    <clipPath id="clip-path">
      <path id="_Icon_小olor" data-name=" Icon 小olor" d="M5.829,14a1,1,0,0,1-.78-.373l-4.828-6A1,1,0,0,1,.232,6.359l5-6a1,1,0,1,1,1.536,1.28L2.293,7.01l4.315,5.362A1,1,0,0,1,5.829,14" transform="translate(8 5.001)" fill="#707070"/>
    </clipPath>
  </defs>
  <g id="Group_2" data-name="Group 2" transform="translate(-8 -5.001)">
    <path id="_Icon_小olor-2" data-name=" Icon 小olor" d="M5.829,14a1,1,0,0,1-.78-.373l-4.828-6A1,1,0,0,1,.232,6.359l5-6a1,1,0,1,1,1.536,1.28L2.293,7.01l4.315,5.362A1,1,0,0,1,5.829,14" transform="translate(8 5.001)" fill="#707070"/>
  </g>
</svg>
