<svg id="right-direction" xmlns="http://www.w3.org/2000/svg" width="13.005" height="9.637" viewBox="0 0 13.005 9.637">
  <g id="Group_25" data-name="Group 25" transform="translate(0 0)">
    <path id="Path_37" data-name="Path 37" d="M0,59.9a.521.521,0,0,0,.52.52h10.6L7.322,63.8a.52.52,0,0,0,.347.91.54.54,0,0,0,.347-.13l4.817-4.3a.513.513,0,0,0,.173-.39.526.526,0,0,0-.173-.39l-4.817-4.3a.522.522,0,1,0-.693.78l3.8,3.388H.52A.521.521,0,0,0,0,59.9Z" transform="translate(0 -55.077)" fill="#03a9f4"/>
  </g>
</svg>
