<svg xmlns="http://www.w3.org/2000/svg" width="24" height="24" viewBox="0 0 24 24">
  <g id="Icon_view" opacity="0.3">
    <g id="Icon_view-2" data-name="Icon_view" transform="translate(3 6)">
      <path id="Shape" d="M9,12A9.816,9.816,0,0,1,0,6,9.75,9.75,0,0,1,18,6,9.816,9.816,0,0,1,9,12ZM9,2a4,4,0,1,0,4,4c0-.088,0-.177-.008-.263a2,2,0,0,1-2.213-3.321A3.958,3.958,0,0,0,9,2Z" fill="#242330"/>
      <path id="Path" d="M4,2A2,2,0,1,1,2,0,2,2,0,0,1,4,2Z" transform="translate(7 4)" fill="#242330"/>
    </g>
  </g>
</svg>
