<svg xmlns="http://www.w3.org/2000/svg" width="64" height="26" viewBox="0 0 64 26">
  <g id="Group_2088" data-name="Group 2088" transform="translate(-268 -107)">
    <g id="Group_2089" data-name="Group 2089">
      <g id="Path_986" data-name="Path 986" transform="translate(268 107)" fill="#fff">
        <path d="M 54 25 L 10 25 C 5.037380218505859 25 1 20.96261978149414 1 16 L 1 10 C 1 5.037380218505859 5.037380218505859 1 10 1 L 54 1 C 58.96261978149414 1 63 5.037380218505859 63 10 L 63 16 C 63 20.96261978149414 58.96261978149414 25 54 25 Z" stroke="none"/>
        <path d="M 10 2 C 5.588790893554688 2 2 5.588790893554688 2 10 L 2 16 C 2 20.41120910644531 5.588790893554688 24 10 24 L 54 24 C 58.41120910644531 24 62 20.41120910644531 62 16 L 62 10 C 62 5.588790893554688 58.41120910644531 2 54 2 L 10 2 M 10 0 L 54 0 C 59.5228385925293 0 64 4.477149963378906 64 10 L 64 16 C 64 21.52285003662109 59.5228385925293 26 54 26 L 10 26 C 4.477149963378906 26 0 21.52285003662109 0 16 L 0 10 C 0 4.477149963378906 4.477149963378906 0 10 0 Z" stroke="none" fill="#e2e2e2"/>
      </g>
      <path id="Path_987" data-name="Path 987" d="M4.5,0A4.5,4.5,0,1,1,0,4.5,4.5,4.5,0,0,1,4.5,0Z" transform="translate(277 116)" fill="#95989a"/>
    </g>
  </g>
</svg>
