<svg xmlns="http://www.w3.org/2000/svg" width="15.26" height="20.928" viewBox="0 0 15.26 20.928">
  <g id="Layer" transform="translate(-3.998 -1)">
    <g id="Vrstva_146" data-name="Vrstva 146" transform="translate(3.998 1)">
      <g id="Group_2089" data-name="Group 2089">
        <path id="Path_160" data-name="Path 160" d="M7.055,16.276c1.537,2.444,3.189,4.583,3.685,5.213a1.136,1.136,0,0,0,1.795,0c.5-.63,2.148-2.769,3.685-5.213A30.141,30.141,0,0,0,18.3,12.457,9.127,9.127,0,0,0,19.256,8.9,7.771,7.771,0,0,0,11.619,1,7.771,7.771,0,0,0,4,8.953a9.127,9.127,0,0,0,.955,3.561,30.141,30.141,0,0,0,2.1,3.762ZM11.638,2.909A5.862,5.862,0,0,1,17.366,8.9a7.428,7.428,0,0,1-.8,2.778,28.641,28.641,0,0,1-1.957,3.647c-1.06,1.68-2.244,3.265-2.969,4.229C10.912,18.6,9.728,17,8.669,15.273a28.642,28.642,0,0,1-1.957-3.542,7.428,7.428,0,0,1-.8-2.778,5.862,5.862,0,0,1,5.728-5.986Z" transform="translate(-3.998 -1)" fill="#95989a"/>
        <circle id="Ellipse_9" data-name="Ellipse 9" cx="3.044" cy="3.044" r="3.044" transform="translate(4.594 5.018)" fill="#95989a"/>
      </g>
    </g>
  </g>
</svg>
