<svg id="Component_64_2" data-name="Component 64 – 2" xmlns="http://www.w3.org/2000/svg" width="20" height="20" viewBox="0 0 20 20">
  <rect id="Rectangle_86" data-name="Rectangle 86" width="20" height="20" fill="none"/>
  <g id="Layer" transform="translate(2.931 2.931)">
    <g id="Vrstva_142" data-name="Vrstva 142" transform="translate(0 0)">
      <path id="Path_158" data-name="Path 158" d="M9.127,16.384l7.257-7.257a2.338,2.338,0,0,0,0-3.3L14.178,3.617a2.338,2.338,0,0,0-3.3,0L3.616,10.873a2.338,2.338,0,0,0-.686,1.652V17.07H7.474a2.338,2.338,0,0,0,1.652-.686Zm-4.677-3.9a.779.779,0,0,1,.226-.546l7.265-7.265a.779.779,0,0,1,1.1,0l2.206,2.206a.779.779,0,0,1,0,1.1l-7.226,7.3a.779.779,0,0,1-.546.226H4.489Z" transform="translate(-2.93 -2.933)" fill="#95989a"/>
    </g>
  </g>
</svg>
