<svg xmlns="http://www.w3.org/2000/svg" width="21.555" height="19.369" viewBox="0 0 21.555 19.369">
  <g id="Layer" transform="translate(-0.973 -2.104)">
    <g id="Vrstva_287" data-name="Vrstva 287">
      <path id="Path_424" data-name="Path 424" d="M23.285,22.849a5.184,5.184,0,0,0-2.979-4.625V12.6a7.712,7.712,0,0,0-6.583-7.755,7.529,7.529,0,0,0-8.476,7.529v5.668A5.163,5.163,0,0,0,1.73,22.9,1.28,1.28,0,0,0,3.1,24.151H22a1.291,1.291,0,0,0,1.28-1.3ZM11.7,7.049a5.378,5.378,0,0,1,6.453,5.27V17.7H7.4V12.545a5.507,5.507,0,0,1,4.3-5.5ZM4.053,22a3.012,3.012,0,0,1,2.893-2.151H18.154A3.022,3.022,0,0,1,21.047,22Z" transform="translate(-0.757 -2.681)" fill="#fff" fill-rule="evenodd"/>
    </g>
  </g>
</svg>
