<svg id="Vrstva_146" data-name="Vrstva 146" xmlns="http://www.w3.org/2000/svg" width="10.026" height="13.75" viewBox="0 0 10.026 13.75">
  <path id="Path_160" data-name="Path 160" d="M6.006,11.037c1.01,1.606,2.1,3.011,2.421,3.425a.746.746,0,0,0,1.179,0c.326-.414,1.411-1.819,2.421-3.425A19.8,19.8,0,0,0,13.4,8.527a6,6,0,0,0,.627-2.34A5.106,5.106,0,0,0,9,1,5.106,5.106,0,0,0,4,6.225a6,6,0,0,0,.627,2.34,19.8,19.8,0,0,0,1.38,2.471ZM9.017,2.255a3.852,3.852,0,0,1,3.764,3.933,4.88,4.88,0,0,1-.527,1.825,18.818,18.818,0,0,1-1.286,2.4c-.7,1.1-1.474,2.145-1.951,2.779-.477-.627-1.255-1.675-1.951-2.81A18.819,18.819,0,0,1,5.781,8.051a4.88,4.88,0,0,1-.527-1.825A3.852,3.852,0,0,1,9.017,2.292Z" transform="translate(-3.998 -1)" fill="#03a9f4"/>
  <circle id="Ellipse_9" data-name="Ellipse 9" cx="2" cy="2" r="2" transform="translate(3.018 3.297)" fill="#03a9f4"/>
</svg>
