<svg xmlns="http://www.w3.org/2000/svg" width="19.847" height="22.57" viewBox="0 0 19.847 22.57">
  <g id="Group_12" data-name="Group 12" transform="translate(0 0)">
    <path id="Path_20" data-name="Path 20" d="M32.1,18.032a.923.923,0,0,0,.92-.92V.924A.915.915,0,0,0,31.546.188L25.536,4.7a.92.92,0,0,0,1.1,1.472l4.538-3.4V17.112A.923.923,0,0,0,32.1,18.032Z" transform="translate(-25.165 0)" fill="#fff"/>
    <path id="Path_21" data-name="Path 21" d="M247.709,86.771a.923.923,0,0,0-.92.92v16.035a.944.944,0,0,0,.506.828,1.012,1.012,0,0,0,.414.092.918.918,0,0,0,.552-.184l6.009-4.43a.921.921,0,1,0-1.088-1.487l-4.553,3.357V87.691A.923.923,0,0,0,247.709,86.771Z" transform="translate(-234.798 -82.076)" fill="#fff"/>
  </g>
</svg>
