<svg id="web-page-home" xmlns="http://www.w3.org/2000/svg" width="26.327" height="23.477" viewBox="0 0 26.327 23.477">
  <g id="Group_8" data-name="Group 8" transform="translate(0 0)">
    <path id="Path_14" data-name="Path 14" d="M.909,40.334H3.054v8.578a.922.922,0,0,0,.919.919h6.28a.922.922,0,0,0,.919-.919v-6.28H15v6.28a.922.922,0,0,0,.919.919h5.974a.922.922,0,0,0,.919-.919V40.334h2.6a.915.915,0,0,0,.643-1.562L14.082,26.625A.915.915,0,0,0,12.8,26.61L.281,38.757a.92.92,0,0,0-.214,1.011A.9.9,0,0,0,.909,40.334Zm12.5-11.764,9.8,9.926H21.894a.922.922,0,0,0-.919.919v8.578H16.839v-6.28a.922.922,0,0,0-.919-.919H10.253a.922.922,0,0,0-.919.919v6.28H4.892V39.415a.922.922,0,0,0-.919-.919h-.8Z" transform="translate(0 -26.353)" fill="#03a9f4"/>
  </g>
</svg>
